<svg xmlns="http://www.w3.org/2000/svg" width="173" height="63" viewBox="0 0 173 63"><path d="M27.3 40.718v-22l7.75.006c9.15.006 14.256 1.238 16.803 4.053 1.943 2.147 2.516 7.841 1.163 11.567-.736 2.026-.57 2.09 3.506 1.34a373.572 373.572 0 0 1 8.278-1.41c2.2-.344 10.3-3.508 18-7.033 19.166-8.773 31.606-13.39 36.71-13.622 5.14-.234 15.648 3.68 28.084 10.458 12.013 6.548 12.31 7.69 1.206 4.637-3.818-1.05-14.581-2.774-20.787-3.33l-4.788-.429 1.538 2.347c1.77 2.702 1.973 3.804.537 2.916-1.8-1.112-1.048 1.146.997 2.997 1.386 1.255 1.693 2.172 1.003 3.003-.69.832-.377 1.754 1.027 3.025 1.232 1.115 1.617 2.077.986 2.467-.616.381-.02 1.593 1.476 2.998l2.511 2.359v-2.224c0-3.243 2.51-7.573 5.538-9.558 3.294-2.158 12.062-3.104 15.692-1.693 2.322.903 2.598 1.402 1.846 3.344-.491 1.268-1.482 2.079-2.23 1.825-.74-.252-3.579-.477-6.308-.5l-4.962-.043-.878 4.407c-1.07 5.37-.127 12.492 1.872 14.152 1.008.835 3.388 1.021 7.532.588 6.892-.72 7.525.475 1.86 3.513-8.838 4.74-18.685.653-19.873-8.249-.568-4.253-.724-4.422-4.339-4.721-3.025-.25-3.78.04-3.9 1.5-.215 2.575.12 7.425.697 10.06.42 1.922.076 2.25-2.357 2.25h-2.849l.08-6.75.079-6.75-4.75.243c-5.717.291-6.069-.999-1-3.675 3.093-1.633 3.356-1.987 1.5-2.024-2.788-.054-2.86-1.182-.226-3.565 1.263-1.144 1.628-2.076.97-2.483-.67-.414-.29-1.622 1.049-3.323 1.156-1.47 1.604-2.673.994-2.673-.785 0-.806-.563-.072-1.934.57-1.064 1.035-2.252 1.035-2.64 0-1.395-10.701.454-21 3.628-5.775 1.78-12.219 3.447-14.32 3.703l-3.819.466 1.931 2.139c2.518 2.788 4.512 8.734 3.327 9.92-.5.499-4.58 1.376-9.067 1.949-7.899 1.008-8.149 1.121-7.855 3.556.167 1.384 1.528 3.426 3.026 4.539 2.728 2.028 4.17 1.978 12.652-.435.756-.215 1.555.094 1.776.686.683 1.836-9.019 6.423-13.586 6.423-5.925 0-9.527-2.198-11.441-6.982-1.983-4.957-2.063-9.522-.256-14.642l1.368-3.876-5.735.14c-3.154.078-6.753.464-7.998.86-2.204.699-2.183.757.796 2.2 4.064 1.968 6.598 7.358 5.71 12.147-1.421 7.659-6.08 10.153-18.96 10.153H27.3zm18.605 14.48c2.129-3.249 1.256-9.326-1.685-11.73-1.178-.962-3.667-1.75-5.53-1.75H35.3v16h4.477c3.681 0 4.77-.448 6.128-2.52zm31.923-13.224c-1.718-6.845-6.803-7.13-8.138-.456l-.64 3.2h4.733c4.662 0 4.723-.041 4.045-2.744zm-33.563-7.19c2.876-5.373-.015-11.066-5.62-11.066H35.3v13h3.965c2.896 0 4.244-.521 5-1.934zm53.152 26.303c-6.995-4.899-6.588-20.507.674-25.869 2.116-1.562 4.279-2 9.876-2 3.941 0 7.39.225 7.661.5.273.275.253 1.764-.044 3.308-.41 2.135-.928 2.636-2.162 2.088-3.143-1.394-9.16-1.61-10.64-.38-1.062.88-1.482 3.302-1.482 8.535 0 9.642 1.17 10.925 9.194 10.087 6.643-.695 7.46.383 2.556 3.373-4.077 2.486-12.325 2.675-15.633.358zM163.3 48.218v-14.5h8v29h-8zm.974-23.027l-2.374-2.528 2.7-2.7 2.7-2.7 2.7 2.7 2.7 2.7-2.374 2.528c-1.306 1.39-2.668 2.527-3.026 2.527-.358 0-1.72-1.137-3.026-2.527zM.3 11.934V3.983l3.853.217C9.36 4.494 10.3 5.26 10.3 9.206c0 3.873-2.474 6.883-5.094 6.198-1.244-.326-1.889.163-2.1 1.594-.169 1.135-.868 2.249-1.556 2.475C.62 19.78.3 17.847.3 11.933zm7-2.216c0-2.027-.496-3-1.531-3-1.808 0-2.922 2.378-2.107 4.5 1.066 2.779 3.638 1.718 3.638-1.5zm6.422 4.279c-2.031-2.031-1.573-9.779.578-9.779.893 0 1.561 1.012 1.651 2.5.084 1.375.196 3.288.25 4.25.055.963.748 1.75 1.542 1.75.982 0 1.54-1.356 1.75-4.25.43-5.945 2.246-4.87 2.601 1.54l.294 5.311-3.57.101c-1.99.057-4.247-.574-5.096-1.423zm12.048.503c-.328-.854-.455-3.459-.283-5.788.302-4.086.443-4.247 3.986-4.56 4.68-.413 6.036 1.21 5.638 6.742-.378 5.254-2.122 5.32-2.811.107-.662-5.006-3.37-5.207-3.821-.283-.373 4.059-1.825 6.086-2.71 3.782zm13.53-.782c-1.1-1.1-2-2.9-2-4 0-2.12 3.275-6 5.066-6 1.712 0 4.934 1.984 4.934 3.04 0 .532-1.445.853-3.211.714-3.444-.272-4.605 1.478-2.818 4.246.798 1.236 1.323 1.28 2.985.25 2.59-1.605 3.044-1.573 3.044.215 0 1.457-2.9 3.535-4.934 3.535-.586 0-1.966-.9-3.066-2zm11.25 1.361c-.687-.29-1.25-1.571-1.25-2.846 0-1.678.83-2.609 3-3.365 1.65-.575 3-1.33 3-1.677 0-.348-1.35-.335-3 .027-3.758.826-4.052-1.064-.422-2.717 3.8-1.732 5.814.003 6.468 5.571.441 3.757.25 4.649-1 4.66-.85.007-2.446.207-3.546.444-1.1.237-2.562.193-3.25-.097zm4.75-3.36c0-.55-.675-1-1.5-1s-1.5.45-1.5 1 .675 1 1.5 1 1.5-.45 1.5-1zm6.208-3.766c.291-7.71 2.008-10.68 2.604-4.503.3 3.114.395 3.178 2.58 1.747 2.82-1.848 4.169-.756 2.01 1.629-1.468 1.622-1.468 1.96-.002 4.053 2.957 4.222.867 5.573-2.456 1.59l-1.877-2.25-.034 2.142c-.018 1.179-.727 2.41-1.575 2.735-1.321.507-1.5-.513-1.25-7.143z" fill="#c7ca4a"/><path d="M27.967 62.051c-.367-.366-.667-10.009-.667-21.428V19.862l5.407-.676c6.094-.76 12.777.095 16.796 2.152 5.52 2.824 5.372 13.397-.228 16.394-2.184 1.168-2.18 1.183.851 3.027 3.94 2.396 5.174 4.821 5.174 10.17 0 8.547-5.033 11.79-18.301 11.79-4.601 0-8.666-.3-9.032-.668zm18.083-6.057c.688-.912 1.25-3.393 1.25-5.512 0-5.131-3.505-8.764-8.455-8.764H35.3v7.833c0 4.309.338 8.173.75 8.587 1.23 1.235 8.652-.356 10-2.144zM43.955 35.59c.756-.628 1.345-3.055 1.345-5.545 0-4.144-.233-4.526-3.617-5.94-5.47-2.285-6.383-1.439-6.383 5.915 0 3.5.334 6.7.743 7.108.943.943 6.14-.067 7.912-1.538zm21.307 24.378c-5.803-5.199-5.937-17.519-.255-23.461 5.254-5.494 16.418-4.315 19.727 2.083 3.27 6.325 1.061 9.111-7.25 9.142-6.08.022-8.184.949-8.184 3.603 0 1.31.953 3.336 2.117 4.5 2.15 2.15 5 2.214 13.133.298 4.553-1.073 3.16 1.202-2.446 3.996-7.092 3.534-12.779 3.48-16.842-.16zM78.3 42.941c0-2.676-2.862-6.223-5.021-6.223-2.121 0-3.979 2.771-3.979 5.934 0 1.782.619 2.066 4.5 2.066 3.646 0 4.5-.337 4.5-1.777zm20.512 18.564c-3.38-1.96-5.387-5.108-6.076-9.53-1.95-12.523 5.82-20.54 18.118-18.697 3.897.585 4.446.976 4.446 3.165 0 2.358-.209 2.454-3.75 1.716-5.03-1.048-8.211-.88-9.6.51-.656.656-1.15 4.282-1.15 8.445 0 9.837.971 10.934 9.208 10.41 3.46-.22 6.292-.051 6.292.376 0 .428-1.782 1.687-3.96 2.798-4.367 2.228-10.45 2.59-13.528.807zm39.386-1.06c-2.817-1.886-3.557-3.169-4.33-7.5-.933-5.227-.933-5.227-4.75-5.227-4.07 0-4.305.386-3.941 6.5.098 1.65.4 4.013.67 5.25.42 1.922.076 2.25-2.357 2.25h-2.849l.08-6.75.079-6.75-4.24-.003c-5.027-.004-5.376-1.348-.96-3.705 2.818-1.504 2.932-1.713.95-1.75-2.76-.051-2.863-1.177-.317-3.48 1.062-.963 1.683-2.4 1.378-3.193-.304-.794.246-2.326 1.223-3.406 1.06-1.172 1.3-1.963.595-1.963-.87 0-.829-.723.155-2.75.735-1.512 1.233-4.76 1.107-7.217-.126-2.456.251-5.365.839-6.463 1.04-1.942 1.092-1.932 1.94.362.48 1.297.6 3.214.269 4.261-.332 1.047-.095 2.517.527 3.266.82.99.829 1.55.028 2.045-.77.475-.633 1.399.452 3.054 1.786 2.726 1.995 3.833.554 2.942-1.8-1.112-1.048 1.147.996 2.997 1.387 1.255 1.694 2.172 1.004 3.003-.69.832-.377 1.754 1.027 3.025 1.232 1.115 1.617 2.077.986 2.467-.62.383-.077 1.539 1.354 2.883l2.388 2.244.635-3.384c1.298-6.918 9.073-11.33 17.916-10.165 4.19.552 4.767.909 4.5 2.782-.282 1.977-.798 2.12-6.47 1.803-5.369-.3-6.304-.083-7.25 1.685-1.703 3.18-1.35 13.34.558 16.063 1.509 2.153 2.171 2.306 8 1.838 7.422-.596 8.151.542 2.106 3.286-5.707 2.59-10.682 2.49-14.852-.3zM163.3 47.717v-14h8v28h-8zm1.02-23.209l-2.057-2.208 2.48-2.48c2.423-2.423 2.53-2.438 4.52-.637 2.517 2.279 2.57 3.742.208 5.88-2.352 2.128-2.685 2.092-5.15-.555zM.3 11.934V3.983l3.853.217C9.36 4.494 10.3 5.26 10.3 9.206c0 3.873-2.474 6.883-5.094 6.198-1.244-.326-1.889.163-2.1 1.594-.169 1.135-.868 2.249-1.556 2.475C.62 19.78.3 17.847.3 11.933zm7-2.216c0-2.027-.496-3-1.531-3-1.808 0-2.922 2.378-2.107 4.5 1.066 2.779 3.638 1.718 3.638-1.5zm6.422 4.279c-2.031-2.031-1.573-9.779.578-9.779.893 0 1.561 1.012 1.651 2.5.084 1.375.196 3.288.25 4.25.055.963.748 1.75 1.542 1.75.982 0 1.54-1.356 1.75-4.25.43-5.945 2.246-4.87 2.601 1.54l.294 5.311-3.57.101c-1.99.057-4.247-.574-5.096-1.423zm12.048.503c-.328-.854-.455-3.459-.283-5.788.302-4.086.443-4.247 3.986-4.56 4.68-.413 6.036 1.21 5.638 6.742-.378 5.254-2.122 5.32-2.811.107-.662-5.006-3.37-5.207-3.821-.283-.373 4.059-1.825 6.086-2.71 3.782zm13.53-.782c-1.1-1.1-2-2.9-2-4 0-2.12 3.275-6 5.066-6 1.712 0 4.934 1.984 4.934 3.04 0 .532-1.445.853-3.211.714-3.444-.272-4.605 1.478-2.818 4.246.798 1.236 1.323 1.28 2.985.25 2.59-1.605 3.044-1.573 3.044.215 0 1.457-2.9 3.535-4.934 3.535-.586 0-1.966-.9-3.066-2zm11.25 1.361c-.687-.29-1.25-1.571-1.25-2.846 0-1.678.83-2.609 3-3.365 1.65-.575 3-1.33 3-1.677 0-.348-1.35-.335-3 .027-3.758.826-4.052-1.064-.422-2.717 3.8-1.732 5.814.003 6.468 5.571.441 3.757.25 4.649-1 4.66-.85.007-2.446.207-3.546.444-1.1.237-2.562.193-3.25-.097zm4.75-3.36c0-.55-.675-1-1.5-1s-1.5.45-1.5 1 .675 1 1.5 1 1.5-.45 1.5-1zm6.208-3.766c.291-7.71 2.008-10.68 2.604-4.503.3 3.114.395 3.178 2.58 1.747 2.82-1.848 4.169-.756 2.01 1.629-1.468 1.622-1.468 1.96-.002 4.053 2.957 4.222.867 5.573-2.456 1.59l-1.877-2.25-.034 2.142c-.018 1.179-.727 2.41-1.575 2.735-1.321.507-1.5-.513-1.25-7.143z" fill="#439fae"/><path d="M27.967 62.051c-.367-.366-.667-10.009-.667-21.428V19.862l5.407-.676c6.094-.76 12.777.095 16.796 2.152 5.52 2.824 5.372 13.397-.228 16.394-2.184 1.168-2.18 1.183.851 3.027 3.94 2.396 5.174 4.821 5.174 10.17 0 8.547-5.033 11.79-18.301 11.79-4.601 0-8.666-.3-9.032-.668zm18.083-6.057c.688-.912 1.25-3.393 1.25-5.512 0-5.131-3.505-8.764-8.455-8.764H35.3v7.833c0 4.309.338 8.173.75 8.587 1.23 1.235 8.652-.356 10-2.144zM43.955 35.59c.756-.628 1.345-3.055 1.345-5.545 0-4.144-.233-4.526-3.617-5.94-5.47-2.285-6.383-1.439-6.383 5.915 0 3.5.334 6.7.743 7.108.943.943 6.14-.067 7.912-1.538zm21.307 24.378c-5.803-5.199-5.937-17.519-.255-23.461 5.254-5.494 16.418-4.315 19.727 2.083 3.27 6.325 1.061 9.111-7.25 9.142-6.08.022-8.184.949-8.184 3.603 0 1.31.953 3.336 2.117 4.5 2.15 2.15 5 2.214 13.133.298 4.553-1.073 3.16 1.202-2.446 3.996-7.092 3.534-12.779 3.48-16.842-.16zM78.3 42.941c0-2.676-2.862-6.223-5.021-6.223-2.121 0-3.979 2.771-3.979 5.934 0 1.782.619 2.066 4.5 2.066 3.646 0 4.5-.337 4.5-1.777zm20.512 18.564c-3.38-1.96-5.387-5.108-6.076-9.53-1.95-12.523 5.82-20.54 18.118-18.697 3.897.585 4.446.976 4.446 3.165 0 2.358-.209 2.454-3.75 1.716-5.03-1.048-8.211-.88-9.6.51-.656.656-1.15 4.282-1.15 8.445 0 9.837.971 10.934 9.208 10.41 3.46-.22 6.292-.051 6.292.376 0 .428-1.782 1.687-3.96 2.798-4.367 2.228-10.45 2.59-13.528.807zm39.386-1.06c-2.825-1.891-3.557-3.165-4.338-7.549l-.94-5.274-4.06.298-4.06.298.097 6.25c.084 5.445-.141 6.25-1.75 6.25-1.605 0-1.847-.845-1.847-6.445v-6.445l-4.75-.305-4.75-.305 3.44-1.874c3.038-1.655 3.248-2.015 1.798-3.075-1.498-1.096-1.449-1.404.56-3.493 1.59-1.656 1.843-2.425.91-2.772-1.001-.373-1.026-.8-.11-1.904 1.487-1.791 2.092-5.37 2.095-12.382.002-5.865 1.442-9.162 2.967-6.797.46.713.586 2.492.28 3.952-.308 1.466-.061 2.961.55 3.339.802.495.784 1.073-.064 2.095-.896 1.08-.887 1.753.038 2.867.664.801.906 1.946.536 2.544-.37.599.03 2.16.888 3.47 1.08 1.649 1.21 2.498.42 2.761-.674.224-.15 1.332 1.275 2.7 1.74 1.671 2.047 2.456 1.094 2.803-.976.355-.733 1.11.924 2.874 2.964 3.155 3.557 3.026 4.3-.933 1.287-6.86 9.094-11.266 17.905-10.105 4.19.552 4.767.908 4.5 2.782-.282 1.976-.798 2.12-6.47 1.803-5.369-.3-6.304-.083-7.25 1.685-1.703 3.18-1.35 13.34.558 16.063 1.509 2.153 2.171 2.305 8 1.838 7.422-.596 8.151.542 2.106 3.286-5.707 2.59-10.682 2.49-14.852-.3zM163.3 47.717v-14h8v28h-8zm1.02-23.209l-2.057-2.208 2.48-2.48c2.423-2.423 2.53-2.438 4.52-.637 2.517 2.279 2.57 3.742.208 5.88-2.352 2.128-2.685 2.092-5.15-.555zM.3 17.66c0-.582.45-.78 1-.44.55.339 1 .816 1 1.058 0 .243-.45.441-1 .441s-1-.476-1-1.059zm4.813-3.624c.721-.289 1.584-.253 1.916.079.332.332-.258.569-1.312.525-1.165-.048-1.402-.285-.604-.604zm8.687-3.317c.34-.55.817-1 1.06-1 .242 0 .44.45.44 1s-.477 1-1.059 1-.78-.45-.441-1zm-4.495 0c-.085-.275-.34-1.625-.566-3-.355-2.147-.264-2.247.645-.712.582.983.836 2.333.566 3-.27.667-.561.987-.645.712zM.92 5.915c-.273-.442 1.163-.839 3.191-.882 2.818-.059 3.216.114 1.688.734C3.141 6.844 1.525 6.893.92 5.915zm30.38-.197c-1.293-.835-1.266-.971.191-.985.93-.008 1.97.435 2.309.985.782 1.266-.542 1.266-2.5 0z" fill="#d33f3d"/><path d="M121.3 54.273v-6.445l-4.75-.305-4.75-.305 3.44-1.874c3.038-1.655 3.248-2.015 1.798-3.075-1.498-1.096-1.449-1.404.56-3.493 1.59-1.656 1.843-2.425.91-2.772-1.001-.373-1.026-.8-.11-1.904 1.487-1.791 2.092-5.37 2.095-12.382.002-5.865 1.442-9.162 2.967-6.797.46.713.586 2.492.28 3.952-.308 1.466-.061 2.961.55 3.339.802.495.784 1.073-.064 2.095-.896 1.08-.887 1.753.038 2.867.664.801.906 1.946.536 2.544-.37.599.03 2.16.888 3.47 1.08 1.649 1.21 2.498.42 2.761-.67.223-.15 1.304 1.262 2.62 1.84 1.714 2.097 2.428 1.097 3.046-.975.603-.526 1.465 1.771 3.397l3.078 2.59-4.258.308-4.258.308.097 6.25c.084 5.445-.141 6.25-1.75 6.25-1.605 0-1.847-.845-1.847-6.445zM.3 17.659c0-.582.45-.78 1-.44.55.339 1 .816 1 1.058 0 .243-.45.441-1 .441s-1-.476-1-1.059zm4.813-3.624c.721-.289 1.584-.253 1.916.079.332.332-.258.569-1.312.525-1.165-.048-1.402-.285-.604-.604zm8.687-3.317c.34-.55.817-1 1.06-1 .242 0 .44.45.44 1s-.477 1-1.059 1-.78-.45-.441-1zm-4.495 0c-.085-.275-.34-1.625-.566-3-.355-2.147-.264-2.247.645-.712.582.983.836 2.333.566 3-.27.667-.561.987-.645.712zM.92 5.915c-.273-.442 1.163-.839 3.191-.882 2.818-.059 3.216.114 1.688.734C3.141 6.844 1.525 6.893.92 5.915zm30.38-.197c-1.293-.835-1.266-.971.191-.985.93-.008 1.97.435 2.309.985.782 1.266-.542 1.266-2.5 0z" fill="#22a662"/></svg>